# xmcd
#
# Track frame offsets: 
#        150
#        16039
#        30413
#        45694
#        58947
#        72422
#        92215
#        105956
#        118359
#        131173
#        145157
#        156696
#        168537
#        183723
#        196939
#        210571
#        224028
#
# Disc length: 3233 seconds
#
# Revision: 0
# Processed by: cddbd v1.5.2PL0 Copyright (c) Steve Scherf et al.
# Submitted via: ExactAudioCopy v0.95b4
#
DISCID=090c9f11
DTITLE=배호 - 천상의 가수 배호 전집 (아세아-2006) (10 CD)-07
DYEAR=2006
DGENRE=Country
TTITLE0=당신
TTITLE1=상처의 그림자
TTITLE2=한목숨 다바쳐
TTITLE3=헤어져도 못잊어
TTITLE4=또 하나의 이별
TTITLE5=늦어도 그날까지
TTITLE6=탄식의 여인
TTITLE7=종소리
TTITLE8=다시올 그 날에는
TTITLE9=잊어야할 사람
TTITLE10=국경없는 거리
TTITLE11=국경없는 거리(MR)
TTITLE12=잊어야할 사람(MR)
TTITLE13=누가 울어(경음악)
TTITLE14=안개속에 가버린 사랑(경음악)
TTITLE15=황토 십리길(경음악)
TTITLE16=초가삼간(경음악)
EXTD=
EXTT0=
EXTT1=
EXTT2=
EXTT3=
EXTT4=
EXTT5=
EXTT6=
EXTT7=
EXTT8=
EXTT9=
EXTT10=
EXTT11=
EXTT12=
EXTT13=
EXTT14=
EXTT15=
EXTT16=
PLAYORDER=
